<?xml version="1.0" standalone="no"?>
<!DOCTYPE svg PUBLIC "-//W3C//DTD SVG 20010904//EN"
 "http://www.w3.org/TR/2001/REC-SVG-20010904/DTD/svg10.dtd">
<svg version="1.0" xmlns="http://www.w3.org/2000/svg"
 width="50.000000pt" height="50.000000pt" viewBox="0 0 50.000000 50.000000"
 preserveAspectRatio="xMidYMid meet">
<metadata>
Created by potrace 1.16, written by Peter Selinger 2001-2019
</metadata>
<g transform="translate(0.000000,50.000000) scale(0.100000,-0.100000)"
fill="#000000" stroke="none">
<path d="M140 425 c0 -9 -9 -15 -25 -15 -25 0 -25 -1 -25 -90 0 -89 0 -90 -25
-90 -20 0 -25 -5 -25 -25 0 -20 5 -25 25 -25 24 0 25 -3 25 -60 l0 -60 185 0
185 0 0 175 0 175 -24 0 c-13 0 -26 7 -30 15 -3 8 -17 15 -31 15 -16 0 -25 -6
-25 -15 0 -9 -9 -15 -25 -15 -16 0 -25 6 -25 15 0 9 -9 15 -25 15 -16 0 -25
-6 -25 -15 0 -9 -9 -15 -24 -15 -13 0 -26 7 -30 15 -7 20 -56 20 -56 0z"/>
</g>
</svg>
