<?xml version="1.0" standalone="no"?>
<!DOCTYPE svg PUBLIC "-//W3C//DTD SVG 20010904//EN"
 "http://www.w3.org/TR/2001/REC-SVG-20010904/DTD/svg10.dtd">
<svg version="1.0" xmlns="http://www.w3.org/2000/svg"
 width="50.000000pt" height="50.000000pt" viewBox="0 0 50.000000 50.000000"
 preserveAspectRatio="xMidYMid meet">
<metadata>
Created by potrace 1.16, written by Peter Selinger 2001-2019
</metadata>
<g transform="translate(0.000000,50.000000) scale(0.100000,-0.100000)"
fill="#000000" stroke="none">
<path d="M0 250 l0 -250 200 0 200 0 0 57 c0 62 -16 64 -22 3 l-3 -35 -175 0
-175 0 0 225 0 225 175 0 175 0 3 -35 c6 -61 22 -59 22 3 l0 57 -200 0 -200 0
0 -250z"/>
<path d="M370 358 c0 -7 19 -32 42 -55 l42 -43 -152 0 c-95 0 -152 -4 -152
-10 0 -6 57 -10 152 -10 l152 0 -42 -43 c-42 -43 -53 -67 -29 -67 18 0 117
102 117 121 0 17 -100 119 -118 119 -7 0 -12 -5 -12 -12z"/>
</g>
</svg>
